# xmcd
#
# Track frame offsets:
#	150
#	4484
#	26333
#	42718
#	58128
#	78870
#	94100
#	115808
#	133168
#	153541
#	169837
#	183562
#	202010
#
# Disc length: 2798 seconds
#
# Revision: 0
# Processed by: cddbd v1.5.1PL0 Copyright (c) Steve Scherf et al.
# Submitted via: dBpowerAMP V4.0
#
DISCID=b50aec0d
DTITLE=John Brown - Rebellion
DYEAR=2005
DGENRE=Hip-Hop
TTITLE0=The Beginning
TTITLE1=Represent
TTITLE2=Country
TTITLE3=G.R.I.T.S. (girls raised in the South)
TTITLE4=Smoke
TTITLE5=Why
TTITLE6=Stand ft. Philly
TTITLE7=Legend
TTITLE8=WAR
TTITLE9=Pure Agression
TTITLE10=Loyalty
TTITLE11=Slippin' Away ft. Philly
TTITLE12=Bloom (outro)
EXTD=
EXTT0=
EXTT1=
EXTT2=
EXTT3=
EXTT4=
EXTT5=
EXTT6=
EXTT7=
EXTT8=
EXTT9=
EXTT10=
EXTT11=
EXTT12=
PLAYORDER=
